{"title":"Vehicle 19 2013 WEBRIP Xvid AC3-FooKas","uid":8435380,"size":1419541029,"categoryP":"video","categoryS":"movies","magnet":"?xt=urn:btih:35955c73e67ed8875041f79d33f283d4a2582fab&amp;dn=Vehicle+19+2013+WEBRIP+Xvid+AC3-FooKas&amp;tr=udp%3A%2F%2Ftracker.openbittorrent.com%3A80&amp;tr=udp%3A%2F%2Fopen.demonii.com%3A1337&amp;tr=udp%3A%2F%2Ftracker.coppersurfer.tk%3A6969&amp;tr=udp%3A%2F%2Fexodus.desync.com%3A6969","seeders":0,"leechers":1,"uploader":"Gh0stNet","files":2,"time":1367611719,"description":"A foreign traveler (Walker) unknowingly picks up a rental car that will tie him to a web of corrupt local police\n &lt;a href=&quot;\nhttp://www.imdb.com/title/tt1911662/&quot; rel=&quot;nofollow&quot; target=&quot;_NEW&quot;&gt;\nhttp://www.imdb.com/title/tt1911662/&lt;/a&gt;\nSource: Vehicle.19.2013.Dt.WEBDL\n\nFormat: AVI\nFormat/Info: Audio Video Interleave\nFormat profile: OpenDML\nFile size: 1.32 GiB\nDuration: 1h 25mn\nOverall bit rate: 2 222 Kbps\nWriting application: Lavf51.12.1\n\nVideo\nID: 0\nFormat: AVC\nFormat/Info: Advanced Video Codec\nFormat profile: &lt;a class=&quot;__cf_email__&quot; href=&quot;/cdn-cgi/l/email-protection&quot; data-cfemail=&quot;fcbe9d8f9990959299bcb0cfd2cc&quot;&gt;[email&amp;#160;protected]&lt;/a&gt;&lt;script data-cfhash='f9e31' type=&quot;text/javascript&quot;&gt;\n/* &lt;![CDATA[ */!function(){try{var t=&quot;currentScript&quot;in document?document.currentScript:function(){for(var t=document.getElementsByTagName(&quot;script&quot;),e=t.length;e--;)if(t[e].getAttribute(&quot;data-cfhash&quot;))return t[e]}();if(t&amp;&amp;t.previousSibling){var e,r,n,i,c=t.previousSibling,a=c.getAttribute(&quot;data-cfemail&quot;);if(a){for(e=&quot;&quot;,r=parseInt(a.substr(0,2),16),n=2;a.length-n;n+=2)i=parseInt(a.substr(n,2),16)^r,e+=String.fromCharCode(i);e=document.createTextNode(e),c.parentNode.replaceChild(e,c)}t.parentNode.removeChild(t);}}catch(u){}}()/* ]]&gt; */&lt;/script&gt;\nFormat settings, CABAC: No\nFormat settings, ReFrames: 1 frame\nFormat settings, GOP: M=1, N=12\nCodec ID: H264\nDuration: 1h 25mn\nBit rate: 1 826 Kbps\nWidth: 720 pixels\nHeight: 304 pixels\nDisplay aspect ratio: 2.35:1\nFrame rate mode: Variable\nFrame rate: 23.976 fps\nColor space: YUV\nChroma subsampling: 4:2:0\nBit depth: 8 bits\nScan type: Progressive\nBits/(Pixel*Frame): 0.348\nStream size: 1.09 GiB (82%)\n\nAudio\nID: 1\nFormat: AC-3\nFormat/Info: Audio Coding 3\nMode extension: CM (complete main)\nFormat settings, Endianness: Big\nCodec ID: 2000\nDuration: 1h 25mn\nBit rate mode: Constant\nBit rate: 384 Kbps\nChannel(s): 6 channels\nChannel positions: Front: L C R, Side: L R, LFE\nSampling rate: 48.0 KHz\nBit depth: 16 bits\nCompression mode: Lossy\nStream size: 234 MiB (17%)\nAlignment: Aligned on interleaves\nInterleave, duration: 32 ms (0.77 video frame)\nInterleave, preload duration: 32 ms\n\nScreens:\n &lt;a href=&quot;\nhttp://i.imgur.com/L0wTVVs.png&quot; rel=&quot;nofollow&quot; target=&quot;_NEW&quot;&gt;\nhttp://i.imgur.com/L0wTVVs.png&lt;/a&gt; &lt;a href=&quot;\nhttp://i.imgur.com/Xa3la43.png&quot; rel=&quot;nofollow&quot; target=&quot;_NEW&quot;&gt;\nhttp://i.imgur.com/Xa3la43.png&lt;/a&gt; &lt;a href=&quot;\nhttp://i.imgur.com/Q48B7Ar.png&quot; rel=&quot;nofollow&quot; target=&quot;_NEW&quot;&gt;\nhttp://i.imgur.com/Q48B7Ar.png&lt;/a&gt; &lt;a href=&quot;\nhttp://i.imgur.com/cknljsX.png&quot; rel=&quot;nofollow&quot; target=&quot;_NEW&quot;&gt;\nhttp://i.imgur.com/cknljsX.png&lt;/a&gt; &lt;a href=&quot;\nhttp://i.imgur.com/U2jfzYw.png&quot; rel=&quot;nofollow&quot; target=&quot;_NEW&quot;&gt;\nhttp://i.imgur.com/U2jfzYw.png&lt;/a&gt; &lt;a href=&quot;\nhttp://i.imgur.com/CjefiFt.png&quot; rel=&quot;nofollow&quot; target=&quot;_NEW&quot;&gt;\nhttp://i.imgur.com/CjefiFt.png&lt;/a&gt;","torrent":{"xt":"urn:btih:35955c73e67ed8875041f79d33f283d4a2582fab","amp;dn":"Vehicle+19+2013+WEBRIP+Xvid+AC3-FooKas","amp;tr":["udp%3A%2F%2Ftracker.openbittorrent.com%3A80","udp%3A%2F%2Fopen.demonii.com%3A1337","udp%3A%2F%2Ftracker.coppersurfer.tk%3A6969","udp%3A%2F%2Fexodus.desync.com%3A6969"],"infoHash":"35955c73e67ed8875041f79d33f283d4a2582fab","infoHashBuffer":{"type":"Buffer","data":[53,149,92,115,230,126,216,135,80,65,247,157,51,242,131,212,162,88,47,171]},"announce":[],"urlList":[]}}